<svg xmlns="http://www.w3.org/2000/svg" width="24" height="24" viewBox="0 0 24 24" fill="none">
  <!-- O mesmo coração, cheio: só a silhueta exterior do contorno, sem o
       interior. A tinta tem de bater ao pixel com a do estado de contorno — é
       o que o medidor confere — senão o ícone salta ao ser seleccionado. -->
  <path fill="currentColor" d="M 18.5867 3.8167 c 0.3333 0.16 0.64 0.3467 0.9333 0.56 c 2.6933 1.9467 3.28 5.7067 1.3333 8.4 c -0.1467 0.2 -0.3067 0.3867 -0.48 0.5733 L 14.44 19.6833 c -1.2667 1.3467 -3.3733 1.4133 -4.7733 0.1067 l -0.1067 -0.1067 l -5.9333 -6.3333 c -2.2667 -2.4267 -2.1467 -6.2267 0.32 -8.5467 l 0.28 -0.24 l 0.2 -0.16 l 0.0533 -0.0267 a 5.752 5.752 0 0 1 7.4667 0.6 l 0.0533 0.0533 l 0.04 -0.0533 a 5.7733 5.7733 0 0 1 6.5467 -1.16"/>
</svg>
