<svg xmlns="http://www.w3.org/2000/svg" viewBox="0 0 1024 1024"><rect width="1024" height="1024" fill="#4C8CE4"/><g transform="translate(204.80,585.82) scale(0.11932,-0.11932)"><path d="M84 0Q84 0 84.0 0.0Q84 0 84 0V1432Q84 1432 84.0 1432.0Q84 1432 84 1432H348Q348 1432 348.0 1432.0Q348 1432 348 1432V0Q348 0 348.0 0.0Q348 0 348 0Z" fill="#FFFFFF"/></g><g transform="translate(261.12,585.82) scale(0.11932,-0.11932)"><path d="M445 -23Q273 -23 175.0 79.5Q77 182 77 361V1048Q77 1048 77.0 1048.0Q77 1048 77 1048H341Q341 1048 341.0 1048.0Q341 1048 341 1048V429Q341 321 390.0 263.0Q439 205 537 205Q642 205 706.0 278.5Q770 352 770 462V1048Q770 1048 770.0 1048.0Q770 1048 770 1048H1034Q1034 1048 1034.0 1048.0Q1034 1048 1034 1048V0Q1034 0 1034.0 0.0Q1034 0 1034 0H779Q779 0 779.0 0.0Q779 0 779 0V261L888 152H778Q728 69 644.0 23.0Q560 -23 445 -23Z" fill="#FFFFFF"/></g><g transform="translate(399.30,585.82) scale(0.11932,-0.11932)"><path d="M744 0Q744 0 744.0 0.0Q744 0 744 0L426 477L387 480L-18 1048Q-18 1048 -18.0 1048.0Q-18 1048 -18 1048H300Q300 1048 300.0 1048.0Q300 1048 300 1048L612 571L660 569L1050 0Q1050 0 1050.0 0.0Q1050 0 1050 0ZM-19 0Q-19 0 -19.0 0.0Q-19 0 -19 0L364 572H424L728 1048Q728 1048 728.0 1048.0Q728 1048 728 1048H1026Q1026 1048 1026.0 1048.0Q1026 1048 1026 1048L645 485H579L273 0Q273 0 273.0 0.0Q273 0 273 0Z" fill="#FFFFFF"/></g><g transform="translate(528.05,585.82) scale(0.11932,-0.11932)"><path d="M573 -22Q335 -22 186.5 131.0Q38 284 38 524Q38 760 186.0 915.0Q334 1070 563 1070Q777 1070 920.5 926.5Q1064 783 1064 542Q1064 513 1062.0 488.0Q1060 463 1056 434Q1056 434 1056.0 434.0Q1056 434 1056 434H169V637H823Q815 729 743.0 792.0Q671 855 566 855Q439 855 360.0 764.0Q281 673 281 522Q281 366 366.0 275.0Q451 184 586 184Q679 184 747.5 227.0Q816 270 863 358Q863 358 863.0 358.0Q863 358 863 358L1047 258Q1047 258 1047.0 258.0Q1047 258 1047 258Q975 122 857.0 50.0Q739 -22 573 -22Z" fill="#FFFFFF"/></g><g transform="translate(664.08,585.82) scale(0.11932,-0.11932)"><path d="M573 -22Q335 -22 186.5 131.0Q38 284 38 524Q38 760 186.0 915.0Q334 1070 563 1070Q777 1070 920.5 926.5Q1064 783 1064 542Q1064 513 1062.0 488.0Q1060 463 1056 434Q1056 434 1056.0 434.0Q1056 434 1056 434H169V637H823Q815 729 743.0 792.0Q671 855 566 855Q439 855 360.0 764.0Q281 673 281 522Q281 366 366.0 275.0Q451 184 586 184Q679 184 747.5 227.0Q816 270 863 358Q863 358 863.0 358.0Q863 358 863 358L1047 258Q1047 258 1047.0 258.0Q1047 258 1047 258Q975 122 857.0 50.0Q739 -22 573 -22Z" fill="#FFFFFF"/></g><circle cx="810.85" cy="501.76" r="8.35" fill="#FFFFFF"/></svg>